<?xml version="1.0" encoding="UTF-8" ?>
<svg version="1.1" width="35" height="11" xmlns="http://www.w3.org/2000/svg" shape-rendering="crispEdges">
<rect x="1" y="0" width="1" height="1" fill="#0616A2" />
<rect x="2" y="0" width="1" height="1" fill="#0616A2" />
<rect x="3" y="0" width="1" height="1" fill="#0616A2" />
<rect x="4" y="0" width="1" height="1" fill="#0616A2" />
<rect x="5" y="0" width="1" height="1" fill="#0616A2" />
<rect x="6" y="0" width="1" height="1" fill="#0616A2" />
<rect x="7" y="0" width="1" height="1" fill="#0616A2" />
<rect x="8" y="0" width="1" height="1" fill="#0616A2" />
<rect x="0" y="1" width="1" height="1" fill="#1022BB" />
<rect x="1" y="1" width="1" height="1" fill="#1022BB" />
<rect x="2" y="1" width="1" height="1" fill="#1022BB" />
<rect x="3" y="1" width="1" height="1" fill="#1022BB" />
<rect x="4" y="1" width="1" height="1" fill="#1022BB" />
<rect x="5" y="1" width="1" height="1" fill="#1022BB" />
<rect x="6" y="1" width="1" height="1" fill="#1022BB" />
<rect x="7" y="1" width="1" height="1" fill="#1022BB" />
<rect x="3" y="2" width="1" height="1" fill="#1D2FCC" />
<rect x="4" y="2" width="1" height="1" fill="#1D2FCC" />
<rect x="3" y="3" width="1" height="1" fill="#2E40D9" />
<rect x="4" y="3" width="1" height="1" fill="#2E40D9" />
<rect x="2" y="4" width="1" height="1" fill="#3F50E1" />
<rect x="3" y="4" width="1" height="1" fill="#3F50E1" />
<rect x="4" y="4" width="1" height="1" fill="#3F50E1" />
<rect x="7" y="4" width="1" height="1" fill="#3F50E1" />
<rect x="8" y="4" width="1" height="1" fill="#3F50E1" />
<rect x="9" y="4" width="1" height="1" fill="#3F50E1" />
<rect x="10" y="4" width="1" height="1" fill="#3F50E1" />
<rect x="15" y="4" width="1" height="1" fill="#3F50E1" />
<rect x="16" y="4" width="1" height="1" fill="#3F50E1" />
<rect x="17" y="4" width="1" height="1" fill="#3F50E1" />
<rect x="18" y="4" width="1" height="1" fill="#3F50E1" />
<rect x="22" y="4" width="1" height="1" fill="#3F50E1" />
<rect x="23" y="4" width="1" height="1" fill="#3F50E1" />
<rect x="26" y="4" width="1" height="1" fill="#3F50E1" />
<rect x="27" y="4" width="1" height="1" fill="#3F50E1" />
<rect x="30" y="4" width="1" height="1" fill="#3F50E1" />
<rect x="31" y="4" width="1" height="1" fill="#3F50E1" />
<rect x="32" y="4" width="1" height="1" fill="#3F50E1" />
<rect x="33" y="4" width="1" height="1" fill="#3F50E1" />
<rect x="34" y="4" width="1" height="1" fill="#3F50E1" />
<rect x="2" y="5" width="1" height="1" fill="#606FEE" />
<rect x="3" y="5" width="1" height="1" fill="#606FEE" />
<rect x="6" y="5" width="1" height="1" fill="#606FEE" />
<rect x="7" y="5" width="1" height="1" fill="#606FEE" />
<rect x="8" y="5" width="1" height="1" fill="#606FEE" />
<rect x="9" y="5" width="1" height="1" fill="#606FEE" />
<rect x="10" y="5" width="1" height="1" fill="#606FEE" />
<rect x="11" y="5" width="1" height="1" fill="#606FEE" />
<rect x="14" y="5" width="1" height="1" fill="#606FEE" />
<rect x="15" y="5" width="1" height="1" fill="#606FEE" />
<rect x="18" y="5" width="1" height="1" fill="#606FEE" />
<rect x="19" y="5" width="1" height="1" fill="#606FEE" />
<rect x="22" y="5" width="1" height="1" fill="#606FEE" />
<rect x="23" y="5" width="1" height="1" fill="#606FEE" />
<rect x="26" y="5" width="1" height="1" fill="#606FEE" />
<rect x="27" y="5" width="1" height="1" fill="#606FEE" />
<rect x="29" y="5" width="1" height="1" fill="#606FEE" />
<rect x="30" y="5" width="1" height="1" fill="#606FEE" />
<rect x="2" y="6" width="1" height="1" fill="#7784F2" />
<rect x="3" y="6" width="1" height="1" fill="#7784F2" />
<rect x="10" y="6" width="1" height="1" fill="#7784F2" />
<rect x="11" y="6" width="1" height="1" fill="#7784F2" />
<rect x="14" y="6" width="1" height="1" fill="#7784F2" />
<rect x="15" y="6" width="1" height="1" fill="#7784F2" />
<rect x="18" y="6" width="1" height="1" fill="#7784F2" />
<rect x="19" y="6" width="1" height="1" fill="#7784F2" />
<rect x="22" y="6" width="1" height="1" fill="#7784F2" />
<rect x="23" y="6" width="1" height="1" fill="#7784F2" />
<rect x="24" y="6" width="1" height="1" fill="#7784F2" />
<rect x="25" y="6" width="1" height="1" fill="#7784F2" />
<rect x="26" y="6" width="1" height="1" fill="#7784F2" />
<rect x="29" y="6" width="1" height="1" fill="#7784F2" />
<rect x="30" y="6" width="1" height="1" fill="#7784F2" />
<rect x="31" y="6" width="1" height="1" fill="#7784F2" />
<rect x="32" y="6" width="1" height="1" fill="#7784F2" />
<rect x="1" y="7" width="1" height="1" fill="#D09A04" />
<rect x="2" y="7" width="1" height="1" fill="#D09A04" />
<rect x="3" y="7" width="1" height="1" fill="#D09A04" />
<rect x="7" y="7" width="1" height="1" fill="#D09A04" />
<rect x="8" y="7" width="1" height="1" fill="#D09A04" />
<rect x="9" y="7" width="1" height="1" fill="#D09A04" />
<rect x="10" y="7" width="1" height="1" fill="#D09A04" />
<rect x="11" y="7" width="1" height="1" fill="#D09A04" />
<rect x="13" y="7" width="1" height="1" fill="#D09A04" />
<rect x="14" y="7" width="1" height="1" fill="#D09A04" />
<rect x="15" y="7" width="1" height="1" fill="#D09A04" />
<rect x="17" y="7" width="1" height="1" fill="#D09A04" />
<rect x="18" y="7" width="1" height="1" fill="#D09A04" />
<rect x="19" y="7" width="1" height="1" fill="#D09A04" />
<rect x="21" y="7" width="1" height="1" fill="#D09A04" />
<rect x="22" y="7" width="1" height="1" fill="#D09A04" />
<rect x="23" y="7" width="1" height="1" fill="#D09A04" />
<rect x="24" y="7" width="1" height="1" fill="#D09A04" />
<rect x="30" y="7" width="1" height="1" fill="#D09A04" />
<rect x="31" y="7" width="1" height="1" fill="#D09A04" />
<rect x="32" y="7" width="1" height="1" fill="#D09A04" />
<rect x="33" y="7" width="1" height="1" fill="#D09A04" />
<rect x="1" y="8" width="1" height="1" fill="#F2B508" />
<rect x="2" y="8" width="1" height="1" fill="#F2B508" />
<rect x="5" y="8" width="1" height="1" fill="#F2B508" />
<rect x="6" y="8" width="1" height="1" fill="#F2B508" />
<rect x="10" y="8" width="1" height="1" fill="#F2B508" />
<rect x="11" y="8" width="1" height="1" fill="#F2B508" />
<rect x="13" y="8" width="1" height="1" fill="#F2B508" />
<rect x="14" y="8" width="1" height="1" fill="#F2B508" />
<rect x="17" y="8" width="1" height="1" fill="#F2B508" />
<rect x="18" y="8" width="1" height="1" fill="#F2B508" />
<rect x="21" y="8" width="1" height="1" fill="#F2B508" />
<rect x="22" y="8" width="1" height="1" fill="#F2B508" />
<rect x="23" y="8" width="1" height="1" fill="#F2B508" />
<rect x="24" y="8" width="1" height="1" fill="#F2B508" />
<rect x="25" y="8" width="1" height="1" fill="#F2B508" />
<rect x="32" y="8" width="1" height="1" fill="#F2B508" />
<rect x="33" y="8" width="1" height="1" fill="#F2B508" />
<rect x="1" y="9" width="1" height="1" fill="#FFCC3F" />
<rect x="2" y="9" width="1" height="1" fill="#FFCC3F" />
<rect x="5" y="9" width="1" height="1" fill="#F7C027" />
<rect x="6" y="9" width="1" height="1" fill="#F7C027" />
<rect x="7" y="9" width="1" height="1" fill="#F7C027" />
<rect x="8" y="9" width="1" height="1" fill="#F7C027" />
<rect x="9" y="9" width="1" height="1" fill="#F7C027" />
<rect x="10" y="9" width="1" height="1" fill="#F7C027" />
<rect x="13" y="9" width="1" height="1" fill="#F7C027" />
<rect x="14" y="9" width="1" height="1" fill="#F7C027" />
<rect x="17" y="9" width="1" height="1" fill="#F7C027" />
<rect x="18" y="9" width="1" height="1" fill="#F7C027" />
<rect x="21" y="9" width="1" height="1" fill="#F7C027" />
<rect x="22" y="9" width="1" height="1" fill="#F7C027" />
<rect x="25" y="9" width="1" height="1" fill="#F7C027" />
<rect x="26" y="9" width="1" height="1" fill="#F7C027" />
<rect x="31" y="9" width="1" height="1" fill="#F7C027" />
<rect x="32" y="9" width="1" height="1" fill="#F7C027" />
<rect x="33" y="9" width="1" height="1" fill="#F7C027" />
<rect x="1" y="10" width="1" height="1" fill="#FFD151" />
<rect x="2" y="10" width="1" height="1" fill="#FFD151" />
<rect x="6" y="10" width="1" height="1" fill="#FFD151" />
<rect x="7" y="10" width="1" height="1" fill="#FFD151" />
<rect x="8" y="10" width="1" height="1" fill="#FFD151" />
<rect x="9" y="10" width="1" height="1" fill="#FFD151" />
<rect x="10" y="10" width="1" height="1" fill="#FFD151" />
<rect x="13" y="10" width="1" height="1" fill="#FFD151" />
<rect x="14" y="10" width="1" height="1" fill="#FFD151" />
<rect x="17" y="10" width="1" height="1" fill="#FFD151" />
<rect x="18" y="10" width="1" height="1" fill="#FFD151" />
<rect x="21" y="10" width="1" height="1" fill="#FFD151" />
<rect x="22" y="10" width="1" height="1" fill="#FFD151" />
<rect x="25" y="10" width="1" height="1" fill="#FFD151" />
<rect x="26" y="10" width="1" height="1" fill="#FFD151" />
<rect x="28" y="10" width="1" height="1" fill="#FFD151" />
<rect x="29" y="10" width="1" height="1" fill="#FFD151" />
<rect x="30" y="10" width="1" height="1" fill="#FFD151" />
<rect x="31" y="10" width="1" height="1" fill="#FFD151" />
<rect x="32" y="10" width="1" height="1" fill="#FFD151" />
</svg>